# xmcd CD database file
#
# Track frame offsets:
#	300
#	36897
#	85177
#	120612
#	159787
#	208385
#	222150
#
# Disc length: 3595 seconds
#
# Revision: 1
# Processed by: cddbd v1.5.2PL0 Copyright (c) Steve Scherf et al.
# Submitted via: CDex 1.70beta2
#
DISCID=5c0e0707
DTITLE=Dave Weckl Band - Live And Very Plugged In [Disc 1]
DYEAR=2002
DGENRE=Jazz
TTITLE0=Wake Up
TTITLE1=Braziluba
TTITLE2=Mesmer-Eyes
TTITLE3=Oasis
TTITLE4=Crossing Paths
TTITLE5=Hesitation
TTITLE6=The Chicken
EXTD=Disc1 YEAR: 2002
EXTT0=
EXTT1=
EXTT2=
EXTT3=
EXTT4=
EXTT5=
EXTT6=
PLAYORDER=
